<?xml version="1.0" encoding="utf-8"?>
<!-- Generator: Adobe Illustrator 22.0.1, SVG Export Plug-In . SVG Version: 6.00 Build 0)  -->
<svg version="1.1" id="Layer_1" xmlns="http://www.w3.org/2000/svg" xmlns:xlink="http://www.w3.org/1999/xlink" x="0px" y="0px"
	 viewBox="0 0 404 91" style="enable-background:new 0 0 404 91;" xml:space="preserve">
<style type="text/css">
	.st0{fill:#FFFFFF;}
</style>
<g>
	<g>
		<path class="st0" d="M148,38c-2.6-1.8-5.7-2.7-9.1-2.7c-2.3,0-4.5,0.5-6.6,1.4c-1.5,0.7-2.8,1.5-3.9,2.5V16.7h-8.2V74h7.4l0.6-3.4
			c1.1,1.1,2.4,2,4,2.7c2.2,1,4.5,1.4,6.8,1.4c3.2,0,6.1-0.9,8.7-2.7c2.6-1.7,4.7-4.2,6.2-7.2c1.5-3,2.3-6.3,2.3-9.9
			c0-3.5-0.7-6.7-2.1-9.7C152.6,42.3,150.6,39.8,148,38z M147.7,55c0,3.5-0.9,6.4-2.7,8.8v0c-1.8,2.3-4,3.4-6.9,3.4
			c-2.9,0-5.3-1-7.2-3c-1.9-2-2.9-5.1-2.9-9.2c0-3.9,1-7,2.9-9.1c1.9-2.1,4.3-3.1,7.2-3.1c2.9,0,5.2,1.1,6.9,3.4
			C146.8,48.5,147.7,51.4,147.7,55z"/>
		<path class="st0" d="M188.2,37.9c-2.9-1.7-6.2-2.6-10-2.6c-3.8,0-7.2,0.9-10.1,2.6c-2.8,1.7-5,4.1-6.5,7.1c-1.5,3-2.2,6.3-2.2,10
			c0,3.7,0.8,7,2.2,10c1.5,3,3.7,5.4,6.5,7.1c2.8,1.7,6.2,2.6,10.1,2.6c3.8,0,7.2-0.9,10-2.6c2.9-1.7,5.1-4.1,6.6-7.1
			c1.5-3,2.2-6.3,2.2-10c0-3.7-0.8-7-2.2-10C193.2,42,191,39.6,188.2,37.9z M178.1,67.2c-3.4,0-5.9-1-7.7-3.1
			c-1.8-2.1-2.7-5.2-2.7-9.1c0-3.9,0.9-7,2.7-9.1c1.8-2.1,4.3-3.1,7.7-3.1c3.4,0,5.9,1,7.7,3.1c1.8,2.1,2.7,5.2,2.7,9.1
			c0,3.9-0.9,7-2.7,9.1C184,66.2,181.5,67.2,178.1,67.2z"/>
		<path class="st0" d="M227.9,39c-1.2-1-2.5-1.9-3.9-2.4c-2-0.8-4.2-1.2-6.5-1.2c-3.4,0-6.5,0.9-9.1,2.7c-2.6,1.8-4.7,4.3-6.1,7.3
			c-1.4,3-2.1,6.3-2.1,9.8c0,3.6,0.8,6.9,2.3,9.9c1.5,3,3.6,5.4,6.2,7.1c2.6,1.8,5.6,2.7,8.8,2.7c2.3,0,4.6-0.5,6.6-1.4
			c1.5-0.7,2.9-1.6,4-2.8l0.6,3.5h7.4V16.7h-8.2V39z M227.2,48.4c1,1.9,1.5,4.1,1.5,6.7c0,2.8-0.5,5.1-1.5,6.9c-1,1.8-2.2,3.1-3.7,4
			v0c-1.5,0.8-3.1,1.3-4.7,1.3c-3.1,0-5.5-1.1-7.3-3.4c-1.9-2.3-2.8-5.3-2.8-8.7c0-3.6,0.9-6.6,2.8-8.9c1.8-2.3,4.2-3.4,7.4-3.4
			c1.6,0,3.2,0.5,4.7,1.4C224.9,45.1,226.2,46.5,227.2,48.4z"/>
		<path class="st0" d="M271.8,39.6c-3-2.9-7-4.3-11.9-4.3c-3.8,0-7.1,0.9-10,2.6c-2.8,1.7-5,4.1-6.5,7.1c-1.5,2.9-2.2,6.2-2.2,9.7
			c0,3.7,0.8,7.1,2.4,10.1c1.6,3,4,5.5,7,7.3l0,0c3.1,1.8,6.8,2.7,11.1,2.7c4,0,8.2-1,12.5-2.9l0.5-0.2l-1.2-6.9l-0.9,0.4
			c-3.1,1.4-6.5,2.1-10.2,2.1c-3.6,0-6.6-0.9-8.9-2.8c-2.1-1.7-3.4-4.6-3.9-8.7H276l0.1-0.6c0.2-1.2,0.3-2.4,0.3-3.7
			C276.4,46.4,274.9,42.4,271.8,39.6z M259.8,42.8c2.7,0,4.8,0.7,6.1,2c1.2,1.2,1.8,2.8,2,4.8h-17.3c0.7-2.1,1.7-3.8,3-4.9
			C255,43.4,257.1,42.8,259.8,42.8z"/>
	</g>
	<path class="st0" d="M278.7,36.8h7.9l7,29.1l7.7-27.9h6.9l7.8,27.9l7-29.1h7.9l-11,36.4h-7.5l-7.6-26.9l-7.7,26.9h-7.5L278.7,36.8z
		"/>
	<path class="st0" d="M342.7,71.4c-2.9-1.7-5.2-4-6.7-6.9c-1.5-2.9-2.3-6.2-2.3-9.7c0-3.4,0.7-6.6,2.1-9.4c1.4-2.8,3.5-5.1,6.2-6.8
		c2.7-1.7,5.9-2.5,9.5-2.5c4.7,0,8.4,1.4,11.3,4.1c2.9,2.7,4.3,6.5,4.3,11.3c0,1.2-0.1,2.4-0.3,3.6h-26.4c0.4,4.7,1.9,8.1,4.3,10
		c2.4,2,5.5,3,9.4,3c3.8,0,7.3-0.7,10.5-2.2l0.9,5.3c-4.2,1.9-8.3,2.8-12.2,2.8C349.2,74,345.6,73.1,342.7,71.4z M360.3,50.4
		c0-2.6-0.7-4.7-2.2-6.2c-1.5-1.5-3.7-2.2-6.7-2.2c-2.9,0-5.1,0.7-6.8,2.1c-1.6,1.4-2.8,3.5-3.5,6.3H360.3z"/>
	<path class="st0" d="M376.1,71.4c-1.5-1.7-2.3-3.8-2.3-6.2V17.5h6.7v43.8c0,2.2,0.1,3.8,0.4,4.8c0.3,1,0.8,1.7,1.6,2
		c0.8,0.3,2.1,0.5,3.9,0.5l-1,5.4h-2.2C380,74,377.6,73.1,376.1,71.4z"/>
	<path class="st0" d="M393.7,71.4c-1.5-1.7-2.3-3.8-2.3-6.2V17.5h6.7v43.8c0,2.2,0.1,3.8,0.4,4.8c0.3,1,0.8,1.7,1.6,2
		c0.8,0.3,2.1,0.5,3.9,0.5l-1,5.4h-2.2C397.6,74,395.2,73.1,393.7,71.4z"/>
	<g>
		<g>
			<path class="st0" d="M45.4,0L32,0.5c0,0-16,0.3-24,9.6S0,39.8,0,39.8l0.3,17c0,0,1.7,16.2,5.7,21.7s10.1,10.6,28.2,12
				c18.1,1.4,30.4-0.9,30.4-0.9s20.7-1.4,24.6-21.4c3.9-20,0.8-38.8,0.8-38.8s-0.7-8.7-4.3-15.8S74.2,3.6,73,3.1S62.6,0.5,45.4,0z
				 M18,38.4c0-4.7,3.8-8.6,8.6-8.6s8.6,3.8,8.6,8.6s-3.8,8.6-8.6,8.6S18,43.1,18,38.4z M45.9,74c-9.5,0-17.2-7.7-17.2-17.2
				c0-1,0.8-1.8,1.8-1.8s1.8,0.8,1.8,1.8c0,7.5,6.1,13.6,13.6,13.6c7.5,0,13.6-6.1,13.6-13.6c0-1,0.8-1.8,1.8-1.8s1.8,0.8,1.8,1.8
				C63.2,66.2,55.4,74,45.9,74z M65.5,46.9c-4.7,0-8.6-3.8-8.6-8.6s3.8-8.6,8.6-8.6s8.6,3.8,8.6,8.6S70.2,46.9,65.5,46.9z"/>
		</g>
	</g>
</g>
</svg>
